<?xml version="1.0" encoding="utf-8"?>
<!-- Generator: Adobe Illustrator 21.1.0, SVG Export Plug-In . SVG Version: 6.00 Build 0)  -->
<svg version="1.1" baseProfile="basic" id="Layer_1"
	 xmlns="http://www.w3.org/2000/svg" xmlns:xlink="http://www.w3.org/1999/xlink" x="0px" y="0px" viewBox="0 0 783.1 783.1"
	 xml:space="preserve">
<g id="Layer_2">
	<circle fill="#03A9F4" cx="391.8" cy="392.8" r="380.5"/>
</g>
<g id="Layer_1_1_">
	<path fill="#F0F5F7" d="M190.2,298.8c2.8-46.4,41.3-83.1,88.4-83.1c38,0,70.3,23.9,82.9,57.5c32.7,0.4,59.1,27,59.1,59.8
		c0,33-26.8,59.8-59.8,59.8c-13.8,0-154.7,0-168.9,0c-26,0-47-21-47-47C144.8,320.4,165,299.7,190.2,298.8z"/>
	<path fill="#DDE9ED" d="M420.6,333c0,23.9-14,44.5-34.3,54.1c3.7-7.7,5.7-16.4,5.7-25.5c0-32.8-26.4-59.4-59.1-59.8
		c-12.6-33.6-45-57.5-82.9-57.5c-17.1,0-33.1,4.9-46.7,13.3c15.6-25.1,43.5-41.9,75.2-41.9c38,0,70.3,23.9,82.9,57.5
		C394.2,273.6,420.6,300.2,420.6,333z"/>
	<path fill="#C4E1E8" d="M588.5,410.7c-3.2-52.2-46.5-93.5-99.4-93.5c-42.7,0-79.2,26.9-93.3,64.7c-36.8,0.4-66.5,30.4-66.5,67.3
		c0,37.2,30.1,67.3,67.3,67.3h190.1c29.2,0,52.9-23.7,52.9-52.9C639.6,434.9,616.9,411.7,588.5,410.7z"/>
	<path fill="#A4D5DD" d="M639.6,463.5c0,29.2-23.7,52.9-52.9,52.9h-4.1c3.8-7.3,6-15.7,6-24.5c0-28.6-22.7-51.9-51.1-52.9
		c-3.2-52.2-46.5-93.5-99.4-93.5c-7.1,0-14.1,0.8-20.8,2.2c18.1-18.8,43.6-30.6,71.8-30.6c53,0,96.3,41.3,99.4,93.5
		C616.9,411.7,639.6,434.9,639.6,463.5z"/>
	<path fill="#F6CB43" d="M556.2,354.8c0,65.5-53.1,118.6-118.6,118.6S319,420.3,319,354.8s53.1-118.6,118.6-118.6
		C503.1,236.2,556.2,289.3,556.2,354.8z"/>
	<path fill="#FAB03C" d="M437.6,473.4c-65.5,0-118.6-53.1-118.6-118.6c0-57.4,40.8-105.4,95.1-116.3c-1.5,7.6-2.3,15.5-2.3,23.5
		c0,65.5,53.1,118.6,118.6,118.6c8.1,0,15.9-0.8,23.5-2.3C543,432.5,495.1,473.4,437.6,473.4z"/>
	<g>
		<path fill="#F8E98E" d="M623.1,362.5h-25.5c-4.3,0-7.7-3.5-7.7-7.7c0-4.3,3.5-7.7,7.7-7.7h25.5c4.3,0,7.7,3.5,7.7,7.7
			C630.8,359.1,627.4,362.5,623.1,362.5z"/>
		<path fill="#F8E98E" d="M576.2,282.5c-2.7,0-5.3-1.4-6.7-3.9c-2.1-3.7-0.9-8.4,2.8-10.6l22.1-12.8c3.7-2.1,8.4-0.9,10.6,2.8
			c2.1,3.7,0.9,8.4-2.8,10.6L580,281.5C578.8,282.2,577.5,282.5,576.2,282.5z"/>
		<path fill="#F8E98E" d="M517.6,224c-1.3,0-2.6-0.3-3.9-1c-3.7-2.1-5-6.9-2.8-10.6l12.8-22.1c2.1-3.7,6.9-5,10.6-2.8
			c3.7,2.1,5,6.9,2.8,10.6l-12.8,22.1C522.9,222.6,520.3,224,517.6,224z"/>
		<path fill="#F8E98E" d="M437.6,202.6c-4.3,0-7.7-3.5-7.7-7.7v-25.5c0-4.3,3.5-7.7,7.7-7.7c4.3,0,7.7,3.5,7.7,7.7v25.5
			C445.4,199.1,441.9,202.6,437.6,202.6z"/>
		<path fill="#F8E98E" d="M357.7,224c-2.7,0-5.3-1.4-6.7-3.9L338.2,198c-2.1-3.7-0.9-8.4,2.8-10.6s8.4-0.9,10.6,2.8l12.8,22.1
			c2.1,3.7,0.9,8.4-2.8,10.6C360.3,223.7,359,224,357.7,224z"/>
	</g>
	<path fill="#C4E1E8" d="M386.8,410.7c-3.2-52.2-46.5-93.5-99.4-93.5c-42.7,0-79.2,26.9-93.3,64.7c-36.8,0.4-66.5,30.4-66.5,67.3
		c0,37.2,30.1,67.3,67.3,67.3H385c29.2,0,52.9-23.7,52.9-52.9C437.9,434.9,415.2,411.7,386.8,410.7z"/>
	<path fill="#A4D5DD" d="M437.9,463.5c0,29.2-23.7,52.9-52.9,52.9h-4.1c3.8-7.3,6-15.7,6-24.5c0-28.6-22.7-51.9-51.1-52.9
		c-3.2-52.2-46.5-93.5-99.4-93.5c-7.1,0-14.1,0.8-20.8,2.2c18.1-18.8,43.6-30.6,71.8-30.6c53,0,96.3,41.3,99.4,93.5
		C415.2,411.7,437.9,434.9,437.9,463.5z"/>
	<path fill="#F0F5F7" d="M546.1,504.4c-3.2-52.2-46.5-93.5-99.4-93.5c-42.7,0-79.2,26.9-93.3,64.7c-36.8,0.4-66.5,30.4-66.5,67.3
		c0,37.2,30.1,67.3,67.3,67.3h190.1c29.2,0,52.9-23.7,52.9-52.9C597.2,528.6,574.5,505.3,546.1,504.4z"/>
	<path fill="#DDE9ED" d="M597.2,557.2c0,29.2-23.7,52.9-52.9,52.9h-4.1c3.8-7.3,6-15.7,6-24.5c0-28.6-22.7-51.9-51.1-52.9
		c-3.2-52.2-46.5-93.5-99.4-93.5c-7.1,0-14.1,0.8-20.8,2.2c18.1-18.8,43.6-30.6,71.8-30.6c53,0,96.3,41.3,99.4,93.5
		C574.5,505.3,597.2,528.6,597.2,557.2z"/>
	<path fill="#F0F5F7" d="M519.8,498.5c-3.5,0-6.7-2.4-7.5-5.9c-0.9-3.7-2.1-7.4-3.6-10.9c-1.7-3.9,0.1-8.5,4-10.2s8.5,0.1,10.2,4
		c1.9,4.3,3.4,8.8,4.5,13.4c1,4.2-1.6,8.3-5.7,9.3C521,498.4,520.4,498.5,519.8,498.5z"/>
	<path fill="#F0F5F7" d="M500.9,464.1c-2,0-4.1-0.8-5.6-2.4c-12.9-13.4-30.2-20.8-48.7-20.8c-4.3,0-7.7-3.5-7.7-7.7
		c0-4.3,3.5-7.7,7.7-7.7c22.8,0,44,9.1,59.8,25.5c3,3.1,2.9,8-0.2,10.9C504.8,463.4,502.9,464.1,500.9,464.1z"/>
	<path fill="#F0F5F7" d="M206.4,534.5c2.3-37.3,33.2-66.9,71.1-66.9c30.5,0,56.6,19.2,66.7,46.2c26.3,0.3,47.5,21.7,47.5,48.1
		c0,26.6-21.5,48.1-48.1,48.1c-11.1,0-124.5,0-135.9,0c-20.9,0-37.8-16.9-37.8-37.8C169.9,551.9,186.2,535.2,206.4,534.5z"/>
	<path fill="#DDE9ED" d="M391.8,562c0,26.3-21.2,47.8-47.5,48.1c7.9-8.6,12.7-20,12.7-32.5c0-26.4-21.2-47.8-47.5-48.1
		c-10.1-27-36.2-46.2-66.7-46.2c-3.6,0-7.2,0.3-10.6,0.8c12.3-10.2,28.1-16.4,45.4-16.4c30.5,0,56.6,19.2,66.7,46.2
		C370.6,514.2,391.8,535.6,391.8,562z"/>
</g>
</svg>
