<?xml version="1.0" encoding="iso-8859-1"?>
<!-- Generator: Adobe Illustrator 19.1.0, SVG Export Plug-In . SVG Version: 6.00 Build 0)  -->
<svg version="1.1" id="Capa_1" xmlns="http://www.w3.org/2000/svg" xmlns:xlink="http://www.w3.org/1999/xlink" x="0px" y="0px"
	 viewBox="0 0 64 64" style="enable-background:new 0 0 64 64;" xml:space="preserve">
<g>
	<g>
		<g>
			<path d="M64,39H49.854C51.257,36.221,52,33.145,52,30c0-11.028-8.972-20-20-20c-0.056,0-0.109,0.003-0.191,0.009l-1.514,0.025
				l0.617,1.382C31.634,13.034,32,14.745,32,16.5C32,23.393,26.393,29,19.5,29c-2.074,0-4.129-0.519-5.941-1.5l-1.345-0.729
				l-0.128,1.523C12.041,28.824,12,29.397,12,30c0,3.145,0.743,6.221,2.146,9H0v2h64V39z M14,30c0-0.027,0-0.055,0-0.082
				C15.737,30.629,17.612,31,19.5,31C27.495,31,34,24.495,34,16.5c0-1.522-0.236-3.015-0.705-4.454C42.617,12.712,50,20.511,50,30
				c0,3.176-0.842,6.272-2.421,9H16.421C14.842,36.273,14,33.176,14,30z"/>
			<polygon points="25.707,45.293 24.293,46.854 31.293,54 32.707,54 39.707,46.854 38.293,45.366 32,51.623 			"/>
		</g>
	</g>
	<g>
	</g>
	<g>
	</g>
	<g>
	</g>
	<g>
	</g>
	<g>
	</g>
	<g>
	</g>
	<g>
	</g>
	<g>
	</g>
	<g>
	</g>
	<g>
	</g>
	<g>
	</g>
	<g>
	</g>
	<g>
	</g>
	<g>
	</g>
	<g>
	</g>
</g>
<g>
</g>
<g>
</g>
<g>
</g>
<g>
</g>
<g>
</g>
<g>
</g>
<g>
</g>
<g>
</g>
<g>
</g>
<g>
</g>
<g>
</g>
<g>
</g>
<g>
</g>
<g>
</g>
<g>
</g>
</svg>
