<svg height="512pt" viewBox="-18 0 512 512" width="512pt" xmlns="http://www.w3.org/2000/svg"><path d="m342.035156 80.289062c10.492188 5.378907 20.472656 11.515626 29.886719 18.335938v32.921875c0 4.140625 3.359375 7.5 7.5 7.5 4.144531 0 7.5-3.359375 7.5-7.5v-21.050781c20.96875 18.078125 38.519531 39.914062 51.84375 64.734375 1.351563 2.523437 3.9375 3.957031 6.613281 3.957031 1.195313 0 2.410156-.289062 3.539063-.894531 3.648437-1.957031 5.023437-6.507813 3.0625-10.15625-16.226563-30.234375-38.34375-56.324219-65.058594-77.015625v-35.625c0-4.140625-3.355469-7.5-7.5-7.5-4.140625 0-7.5 3.359375-7.5 7.5v24.898437c-7.390625-4.875-15.078125-9.371093-23.039063-13.453125-3.6875-1.890625-8.207031-.4375-10.097656 3.25s-.4375 8.207032 3.25 10.097656zm0 0"/><path d="m476.867188 239.695312c-2.472657-13.867187-6.191407-27.601562-11.054688-40.824218-1.433594-3.886719-5.738281-5.875-9.628906-4.449219-3.890625 1.429687-5.878906 5.738281-4.449219 9.628906 4.5625 12.394531 8.050781 25.273438 10.363281 38.273438.148438.832031-.121094 1.488281-.808594 1.949219-.484374.332031-1.261718.605468-2.1875.023437-15.964843-9.972656-34.394531-15.238281-53.308593-15.238281-31.800781 0-61.179688 14.707031-80.195313 39.730468-5.394531-61.425781-15.5625-116.488281-28.953125-156.296874-8.289062-24.648438-17.496093-43.023438-27.542969-55.058594 14.972657 2.015625 29.683594 5.503906 43.976563 10.46875 3.914063 1.359375 8.183594-.714844 9.542969-4.625 1.359375-3.914063-.710938-8.1875-4.625-9.546875-18.910156-6.566407-38.5-10.726563-58.460938-12.441407l-4.738281-18.171874c-1.957031-7.496094-8.480469-12.535157-16.226563-12.535157-7.75 0-14.269531 5.039063-16.226562 12.535157l-4.746094 18.1875c-34.214844 2.972656-67.535156 13.175781-97.414062 29.964843-.144532.082031-.285156.167969-.429688.25v-50.035156c0-4.144531-3.359375-7.5-7.5-7.5-4.144531 0-7.5 3.355469-7.5 7.5v59.269531c-28.214844 18.773438-52.429687 43.402344-70.644531 72.070313-2.21875 3.496093-1.183594 8.132812 2.3125 10.355469 1.246094.789062 2.636719 1.167968 4.015625 1.167968 2.480469 0 4.90625-1.230468 6.335938-3.480468 15.609374-24.570313 35.335937-45.453126 57.980468-62v30.046874c0 4.144532 3.355469 7.5 7.5 7.5 4.140625 0 7.5-3.355468 7.5-7.5v-40.113281c26.660156-16.375 56.644532-27.140625 88.277344-31.375-10.046875 12.039063-19.25 30.421875-27.535156 55.066407-13.390625 39.808593-23.558594 94.871093-28.953125 156.300781-19.015625-25.027344-48.394531-39.734375-80.195313-39.734375-18.910156 0-37.34375 5.269531-53.308594 15.238281-.925781.582031-1.699218.308594-2.1875-.023437-.6875-.460938-.957031-1.117188-.808593-1.949219 3.207031-18 8.609375-35.59375 16.058593-52.289063 1.6875-3.78125-.011718-8.21875-3.792968-9.902344-3.78125-1.6875-8.21875.007813-9.90625 3.792969-7.941406 17.804688-13.707032 36.566407-17.128906 55.769531-1.191407 6.691407 1.558593 13.207032 7.175781 17.007813 5.640625 3.8125 12.742187 3.9375 18.535156.316406 13.578125-8.480469 29.265625-12.960937 45.363281-12.960937 29.550782 0 56.652344 14.917968 72.5 39.902344 3.035156 4.792968 8.238282 7.714843 13.914063 7.820312 5.761719.125 11.125-2.671875 14.390625-7.429688 13.613281-19.84375 35.246094-32.445312 58.917968-34.65625v138.386719c-6.925781 2.933594-11.800781 9.800781-11.800781 17.78125v55.417969c0 27.964844 22.753907 50.71875 50.722657 50.71875 27.964843 0 50.71875-22.753906 50.71875-50.71875 0-10.640625-8.65625-19.300781-19.300782-19.300781-10.640625 0-19.296875 8.660156-19.296875 19.300781 0 6.683594-5.4375 12.121094-12.121093 12.121094-6.6875 0-12.121094-5.4375-12.121094-12.121094v-55.417969c0-7.980469-4.875-14.847656-11.800782-17.78125v-138.386719c23.671876 2.210938 45.304688 14.8125 58.917969 34.65625 3.207031 4.671876 8.449219 7.433594 14.078125 7.429688h.3125c5.675782-.105469 10.875-3.027344 13.914063-7.820312 15.84375-24.984376 42.945312-39.902344 72.5-39.902344 16.097656 0 31.785156 4.480468 45.363281 12.960937 5.792969 3.617188 12.894531 3.496094 18.53125-.316406 5.621094-3.800781 8.371094-10.316406 7.179688-17.007813zm-240.007813-212.789062c.09375-.359375.347656-1.320312 1.710937-1.320312 1.367188 0 1.617188.960937 1.714844 1.320312l3.53125 13.539062c-1.746094-.035156-3.496094-.054687-5.246094-.054687s-3.5.023437-5.246093.0625zm33.132813 461.496094c14.953124 0 27.121093-12.167969 27.121093-27.121094 0-2.371094 1.929688-4.300781 4.300781-4.300781 2.367188 0 4.296876 1.929687 4.296876 4.300781 0 19.695312-16.023438 35.71875-35.71875 35.71875-19.695313 0-35.71875-16.023438-35.71875-35.71875v-55.417969c0-2.367187 1.929687-4.296875 4.296874-4.296875 2.371094 0 4.300782 1.929688 4.300782 4.296875v55.417969c0 14.953125 12.167968 27.121094 27.121094 27.121094zm-31.421876-254.058594c-27.675781 0-53.773437 11.992188-71.800781 32.539062 12.402344-137.515624 45.621094-211.492187 71.800781-211.492187 14.648438 0 30.632813 22.554687 43.859376 61.882813 12.792968 38.035156 22.585937 90.648437 27.945312 149.613281-18.027344-20.550781-44.125-32.542969-71.804688-32.542969zm0 0"/><path d="m416.601562 59.3125c4.144532 0 7.5-3.359375 7.5-7.5v-33.726562c0-4.144532-3.355468-7.5-7.5-7.5-4.140624 0-7.5 3.355468-7.5 7.5v33.726562c0 4.140625 3.359376 7.5 7.5 7.5zm0 0"/><path d="m82.933594 81.191406c4.144531 0 7.5-3.355468 7.5-7.5v-19.074218c0-4.144532-3.355469-7.5-7.5-7.5-4.144532 0-7.5 3.355468-7.5 7.5v19.074218c0 4.144532 3.359375 7.5 7.5 7.5zm0 0"/><path d="m313.210938 35.191406c4.144531 0 7.5-3.355468 7.5-7.5v-20.191406c0-4.144531-3.355469-7.5-7.5-7.5-4.144532 0-7.5 3.355469-7.5 7.5v20.191406c0 4.144532 3.355468 7.5 7.5 7.5zm0 0"/><path d="m456.113281 131.046875c4.144531 0 7.5-3.359375 7.5-7.5v-20.195313c0-4.140624-3.355469-7.5-7.5-7.5-4.140625 0-7.5 3.359376-7.5 7.5v20.195313c0 4.140625 3.359375 7.5 7.5 7.5zm0 0"/><path d="m21.027344 131.046875c4.144531 0 7.5-3.359375 7.5-7.5v-20.195313c0-4.140624-3.355469-7.5-7.5-7.5-4.140625 0-7.5 3.359376-7.5 7.5v20.195313c0 4.140625 3.359375 7.5 7.5 7.5zm0 0"/></svg>