<?xml version="1.0" encoding="iso-8859-1"?>
<!-- Generator: Adobe Illustrator 19.1.0, SVG Export Plug-In . SVG Version: 6.00 Build 0)  -->
<svg version="1.1" id="Capa_1" xmlns="http://www.w3.org/2000/svg" xmlns:xlink="http://www.w3.org/1999/xlink" x="0px" y="0px"
	 viewBox="0 0 64 64" style="enable-background:new 0 0 64 64;" xml:space="preserve">
<g>
	<g>
		<g>
			<rect y="35.5" width="10" height="2"/>
			<rect x="54" y="35.5" width="10" height="2"/>
			<rect x="31" y="3.5" width="2" height="11"/>
			<path d="M13.3,23.2l-8-8l1.4-1.4l8,8L13.3,23.2z"/>
			<path d="M58.7,15.2l-8,8l-1.4-1.4l8-8L58.7,15.2z"/>
			<polygon points="39.7,53.4 38.3,51.9 32,58.1 25.7,51.8 24.3,53.4 31.3,60.5 32.7,60.5 			"/>
			<path d="M52,36.5c0-11-9-20-20-20s-20,9-20,20c0,3.1,0.7,6.2,2.1,9H0v2h64v-2H49.9C51.3,42.7,52,39.6,52,36.5z M14,36.5
				c0-9.9,8.1-18,18-18s18,8.1,18,18c0,3.2-0.8,6.3-2.4,9H16.4C14.8,42.8,14,39.7,14,36.5z"/>
		</g>
	</g>
</g>
<g>
</g>
<g>
</g>
<g>
</g>
<g>
</g>
<g>
</g>
<g>
</g>
<g>
</g>
<g>
</g>
<g>
</g>
<g>
</g>
<g>
</g>
<g>
</g>
<g>
</g>
<g>
</g>
<g>
</g>
</svg>
