<?xml version="1.0" encoding="iso-8859-1"?>
<!-- Generator: Adobe Illustrator 19.0.0, SVG Export Plug-In . SVG Version: 6.00 Build 0)  -->
<svg version="1.1" id="Layer_1" xmlns="http://www.w3.org/2000/svg" xmlns:xlink="http://www.w3.org/1999/xlink" x="0px" y="0px"
	 viewBox="0 0 512 512" style="enable-background:new 0 0 512 512;" xml:space="preserve">
<g>
	<g>
		<g>
			<path d="M179.2,494.933h-59.733V49.63c9.916-3.533,17.067-12.919,17.067-24.03c0-14.114-11.486-25.6-25.6-25.6
				c-14.114,0-25.6,11.486-25.6,25.6c0,11.11,7.151,20.497,17.067,24.03v445.303H42.667c-4.71,0-8.533,3.823-8.533,8.533
				c0,4.719,3.823,8.533,8.533,8.533H179.2c4.71,0,8.533-3.814,8.533-8.533C187.733,498.756,183.91,494.933,179.2,494.933z
				 M110.933,34.133c-4.702,0-8.533-3.823-8.533-8.533c0-4.702,3.831-8.533,8.533-8.533c4.702,0,8.533,3.831,8.533,8.533
				C119.467,30.31,115.635,34.133,110.933,34.133z"/>
			<path d="M401.067,153.6c4.71,0,8.533-3.814,8.533-8.533v-34.133c0-4.71-3.823-8.533-8.533-8.533s-8.533,3.823-8.533,8.533v34.133
				C392.533,149.786,396.356,153.6,401.067,153.6z"/>
			<path d="M264.533,179.2c4.71,0,8.533-3.814,8.533-8.533V85.333c0-4.71-3.823-8.533-8.533-8.533S256,80.623,256,85.333v85.333
				C256,175.386,259.823,179.2,264.533,179.2z"/>
			<path d="M470.903,85.478l-273.067-51.2c-0.41-0.068-0.819-0.06-1.229-0.068c-0.119-0.009-0.222-0.077-0.341-0.077
				c-0.068,0-0.119,0.034-0.179,0.043c-0.99,0.017-1.946,0.222-2.859,0.58c-0.205,0.068-0.384,0.162-0.58,0.247
				c-0.87,0.418-1.707,0.922-2.406,1.621l-0.017,0.017l-51.191,51.191c-3.336,3.337-3.336,8.738,0,12.066
				c3.337,3.337,8.73,3.337,12.066,0l36.634-36.634v129.468L151.1,156.1c-3.337-3.328-8.73-3.328-12.066,0
				c-3.336,3.337-3.336,8.738,0,12.066l51.191,51.2c0.785,0.785,1.724,1.408,2.765,1.843c1.033,0.427,2.142,0.657,3.277,0.657
				c0.521,0,1.05-0.043,1.57-0.145l273.067-51.2c4.036-0.759,6.963-4.275,6.963-8.388V93.867
				C477.867,89.762,474.94,86.238,470.903,85.478z M460.8,155.051l-256,48V52.949l256,48V155.051z"/>
			<path d="M332.8,166.537c4.71,0,8.533-3.823,8.533-8.533V98.671c0-4.71-3.823-8.533-8.533-8.533s-8.533,3.823-8.533,8.533v59.332
				C324.267,162.714,328.09,166.537,332.8,166.537z"/>
		</g>
	</g>
</g>
<g>
</g>
<g>
</g>
<g>
</g>
<g>
</g>
<g>
</g>
<g>
</g>
<g>
</g>
<g>
</g>
<g>
</g>
<g>
</g>
<g>
</g>
<g>
</g>
<g>
</g>
<g>
</g>
<g>
</g>
</svg>
