<?xml version="1.0" encoding="iso-8859-1"?>
<!-- Generator: Adobe Illustrator 17.1.0, SVG Export Plug-In . SVG Version: 6.00 Build 0)  -->
<!DOCTYPE svg PUBLIC "-//W3C//DTD SVG 1.1//EN" "http://www.w3.org/Graphics/SVG/1.1/DTD/svg11.dtd">
<svg version="1.1" id="Capa_1" xmlns="http://www.w3.org/2000/svg" xmlns:xlink="http://www.w3.org/1999/xlink" x="0px" y="0px"
	 viewBox="0 0 442 442" style="enable-background:new 0 0 442 442;" xml:space="preserve">
<g>
	<path d="M165.471,0c-3.484,0-6.716,1.813-8.533,4.786c-5.325,8.713-130.409,214.366-130.409,298.273
		C26.529,379.671,88.858,442,165.471,442s138.941-62.329,138.941-138.941c0-83.907-125.084-289.56-130.409-298.273
		C172.187,1.813,168.955,0,165.471,0z M165.471,422c-65.584,0-118.941-53.357-118.941-118.941
		c0-66.274,90.378-225.025,118.941-273.537c28.563,48.512,118.941,207.263,118.941,273.537C284.412,368.643,231.056,422,165.471,422
		z"/>
	<path d="M96.648,217.125c-2.661,6.332-5.154,12.509-7.41,18.361c-15.408,39.975-17.709,59.495-17.709,67.573
		c0,51.799,42.142,93.941,93.941,93.941s93.941-42.142,93.941-93.941c0-8.1-2.313-27.68-17.8-67.807
		c-2.239-5.802-4.702-11.9-7.318-18.125c-1.561-3.711-5.193-6.125-9.219-6.125L105.867,211
		C101.842,211,98.208,213.414,96.648,217.125z M112.545,231l105.852,0.002c1.602,3.914,3.127,7.747,4.557,11.451
		c15.271,39.568,16.458,56.392,16.458,60.605c0,40.771-33.17,73.941-73.941,73.941s-73.941-33.17-73.941-73.941
		c0-4.201,1.181-20.97,16.371-60.379C109.352,238.913,110.907,235.003,112.545,231z"/>
	<path d="M405.471,0H342.84c-5.522,0-10,4.477-10,10s4.478,10,10,10h52.631v50.333H363.84c-5.522,0-10,4.477-10,10s4.478,10,10,10
		h31.631v50.333H363.84c-5.522,0-10,4.477-10,10s4.478,10,10,10h31.631V211H342.84c-5.522,0-10,4.477-10,10s4.478,10,10,10h52.631
		v50.333H363.84c-5.522,0-10,4.477-10,10s4.478,10,10,10h31.631v50.333H363.84c-5.522,0-10,4.477-10,10s4.478,10,10,10h31.631V422
		H342.84c-5.522,0-10,4.477-10,10s4.478,10,10,10h62.631c5.522,0,10-4.477,10-10V10C415.471,4.477,410.993,0,405.471,0z"/>
</g>
<g>
</g>
<g>
</g>
<g>
</g>
<g>
</g>
<g>
</g>
<g>
</g>
<g>
</g>
<g>
</g>
<g>
</g>
<g>
</g>
<g>
</g>
<g>
</g>
<g>
</g>
<g>
</g>
<g>
</g>
</svg>
