<?xml version="1.0" encoding="iso-8859-1"?>
<!-- Generator: Adobe Illustrator 19.1.0, SVG Export Plug-In . SVG Version: 6.00 Build 0)  -->
<svg version="1.1" id="Capa_1" xmlns="http://www.w3.org/2000/svg" xmlns:xlink="http://www.w3.org/1999/xlink" x="0px" y="0px"
	 viewBox="0 0 64 64" style="enable-background:new 0 0 64 64;" xml:space="preserve">
<g>
	<g>
		<g>
			<path d="M52,30.146c0-11.028-8.972-20-20-20c-0.056,0-0.11,0.003-0.191,0.009l-1.514,0.025l0.617,1.382
				C31.634,13.18,32,14.89,32,16.646c0,6.893-5.607,12.5-12.5,12.5c-2.074,0-4.128-0.519-5.942-1.501l-1.343-0.727l-0.129,1.521
				C12.043,28.939,12,29.533,12,30.146c0,3.145,0.743,6.221,2.146,9H0v2h64v-2H49.854C51.257,36.368,52,33.292,52,30.146z
				 M14,30.146c0-0.027,0-0.055,0-0.082c1.737,0.711,3.612,1.082,5.5,1.082c7.995,0,14.5-6.505,14.5-14.5
				c0-1.522-0.237-3.015-0.705-4.454C42.618,12.858,50,20.657,50,30.146c0,3.176-0.842,6.272-2.42,9H16.421
				C14.842,36.418,14,33.321,14,30.146z"/>
			<polygon points="38.293,53.854 39.707,52.292 32.707,45.146 31.293,45.146 24.293,52.292 25.707,53.78 32,47.523 			"/>
		</g>
	</g>
	<g>
	</g>
	<g>
	</g>
	<g>
	</g>
	<g>
	</g>
	<g>
	</g>
	<g>
	</g>
	<g>
	</g>
	<g>
	</g>
	<g>
	</g>
	<g>
	</g>
	<g>
	</g>
	<g>
	</g>
	<g>
	</g>
	<g>
	</g>
	<g>
	</g>
</g>
<g>
</g>
<g>
</g>
<g>
</g>
<g>
</g>
<g>
</g>
<g>
</g>
<g>
</g>
<g>
</g>
<g>
</g>
<g>
</g>
<g>
</g>
<g>
</g>
<g>
</g>
<g>
</g>
<g>
</g>
</svg>
