<?xml version="1.0" encoding="iso-8859-1"?>
<!-- Generator: Adobe Illustrator 19.1.0, SVG Export Plug-In . SVG Version: 6.00 Build 0)  -->
<svg version="1.1" id="Capa_1" xmlns="http://www.w3.org/2000/svg" xmlns:xlink="http://www.w3.org/1999/xlink" x="0px" y="0px"
	 viewBox="0 0 64 64" style="enable-background:new 0 0 64 64;" xml:space="preserve">
<g>
	<rect y="35.646" width="10" height="2"/>
	<rect x="54" y="35.646" width="10" height="2"/>
	<rect x="31" y="3.646" width="2" height="11"/>
	<path d="M13.293,23.354l-8-8l1.414-1.414l8,8L13.293,23.354z"/>
	<path d="M58.707,15.354l-8,8l-1.414-1.414l8-8L58.707,15.354z"/>
	<polygon points="38.293,60.354 39.707,58.792 32.707,51.646 31.293,51.646 24.293,58.792 25.707,60.28 32,54.023 	"/>
	<path d="M52,36.646c0-11.028-8.972-20-20-20s-20,8.972-20,20c0,3.145,0.743,6.221,2.146,9H0v2h64v-2H49.854
		C51.257,42.868,52,39.792,52,36.646z M14,36.646c0-9.925,8.075-18,18-18s18,8.075,18,18c0,3.176-0.842,6.272-2.42,9H16.421
		C14.842,42.918,14,39.821,14,36.646z"/>
	<g>
	</g>
	<g>
	</g>
	<g>
	</g>
	<g>
	</g>
	<g>
	</g>
	<g>
	</g>
	<g>
	</g>
	<g>
	</g>
	<g>
	</g>
	<g>
	</g>
	<g>
	</g>
	<g>
	</g>
	<g>
	</g>
	<g>
	</g>
	<g>
	</g>
</g>
<g>
</g>
<g>
</g>
<g>
</g>
<g>
</g>
<g>
</g>
<g>
</g>
<g>
</g>
<g>
</g>
<g>
</g>
<g>
</g>
<g>
</g>
<g>
</g>
<g>
</g>
<g>
</g>
<g>
</g>
</svg>
