<svg height="512pt" viewBox="0 0 512 512" width="512pt" xmlns="http://www.w3.org/2000/svg"><path d="m219.871094 497.382812-24.871094-8.289062v-159.902344c7.613281-7.78125 12.835938-17.910156 14.457031-29.191406h8.042969c4.140625 0 7.5-3.359375 7.5-7.5v-100c0-15.164062-12.335938-27.5-27.5-27.5h-80c-12.464844 0-23.011719 8.339844-26.375 19.726562-42.519531-3.265624-76.125-38.882812-76.125-82.226562 0-4.144531-3.359375-7.5-7.5-7.5s-7.5 3.355469-7.5 7.5c0 51.238281 39.730469 93.371094 90 97.214844v92.785156c0 4.140625 3.359375 7.5 7.5 7.5h8.042969c1.621093 11.28125 6.839843 21.410156 14.457031 29.191406v159.902344l-24.871094 8.289062c-3.929687 1.308594-6.054687 5.558594-4.746094 9.488282 1.050782 3.140625 3.976563 5.128906 7.113282 5.128906.789062 0 1.585937-.125 2.375-.386719l30-10c3.0625-1.019531 5.128906-3.886719 5.128906-7.113281v-154.578125c6.824219 3.25 14.449219 5.078125 22.5 5.078125 8.046875 0 15.675781-1.828125 22.5-5.078125v154.578125c0 3.226562 2.0625 6.09375 5.125 7.113281l30 10c.789062.261719 1.585938.386719 2.375.386719 3.140625 0 6.066406-1.988281 7.113281-5.128906 1.3125-3.929688-.8125-8.179688-4.742187-9.488282zm-54.871094-212.382812v-25h45v25zm-60 0v-25h45v25zm105-40h-45v-15h45zm-60 0h-45v-15h45zm60-52.5v22.5h-45v-35h32.5c6.890625 0 12.5 5.605469 12.5 12.5zm-92.5-12.5h32.5v35h-45v-22.5c0-6.894531 5.605469-12.5 12.5-12.5zm3.253906 120h73.492188c-3.484375 17.09375-18.636719 30-36.746094 30s-33.261719-12.90625-36.746094-30zm0 0"/><path d="m105 97.5c0 28.949219 23.550781 52.5 52.5 52.5s52.5-23.550781 52.5-52.5c0-15.394531-6.664062-29.261719-17.253906-38.875 8.601562-3.164062 14.753906-11.441406 14.753906-21.125 0-10.136719-6.738281-18.726562-15.96875-21.53125-2.804688-9.234375-11.394531-15.96875-21.53125-15.96875-4.527344 0-8.855469 1.351562-12.5 3.789062-3.644531-2.4375-7.972656-3.789062-12.5-3.789062-10.136719 0-18.726562 6.734375-21.535156 15.96875-9.226563 2.804688-15.964844 11.394531-15.964844 21.53125 0 9.683594 6.152344 17.960938 14.753906 21.125-10.59375 9.613281-17.253906 23.480469-17.253906 38.875zm52.5 37.5c-20.679688 0-37.5-16.824219-37.5-37.5 0-9.664062 3.675781-18.484375 9.699219-25.136719 16.691406 18.800781 39.574219 30.242188 64.605469 32.296875-3.351563 17.261719-18.578126 30.339844-36.804688 30.339844zm36.648438-45.421875c-20.152344-2-38.578126-11.210937-52.296876-26.144531 4.765626-2.199219 10.066407-3.433594 15.648438-3.433594 17.960938 0 33.003906 12.695312 36.648438 29.578125zm-64.148438-44.578125c-4.136719 0-7.5-3.363281-7.5-7.5s3.363281-7.5 7.5-7.5c4.140625 0 7.5-3.355469 7.5-7.5 0-4.136719 3.363281-7.5 7.5-7.5 2.515625 0 4.851562 1.257812 6.25 3.363281 1.390625 2.09375 3.738281 3.351563 6.25 3.351563s4.855469-1.257813 6.246094-3.351563c1.398437-2.105469 3.738281-3.363281 6.253906-3.363281 4.136719 0 7.5 3.363281 7.5 7.5 0 4.144531 3.355469 7.5 7.5 7.5 4.136719 0 7.5 3.363281 7.5 7.5s-3.363281 7.5-7.5 7.5zm0 0"/><path d="m505.234375 15.035156-151.960937-14.9960935c-.132813-.0117187-.226563-.0117187-.320313-.015625-.152344-.0078125-.300781-.0234375-.453125-.0234375-.148438 0-.28125.0117188-.414062.0195312-.128907.0078126-.261719.0117188-.386719.0234376-.089844.0117187-.179688.0273437-.269531.0429687-.171876.0234375-.339844.0468745-.507813.0859375-.066406.011719-.132813.03125-.195313.046875-.1875.046875-.371093.09375-.554687.152344-.042969.015625-35.171875 11.722656-35.171875 11.722656v-4.59375c0-4.144531-3.359375-7.5-7.5-7.5h-30c-4.140625 0-7.5 3.355469-7.5 7.5v496.996094c0 4.144531 3.359375 7.5 7.5 7.5h30c4.140625 0 7.5-3.355469 7.5-7.5v-441.589844l35.128906 11.707031c.371094.121094.726563.207031 1.082032.269531.066406.011719.132812.019532.199218.027344.355469.054688.71875.089844 1.089844.089844.246094 0 .492188-.011719.734375-.035156.039063-.003906 152-15 152-15 3.839844-.378906 6.765625-3.609375 6.765625-7.464844v-30c-.003906-3.855469-2.925781-7.085938-6.765625-7.464844zm-220.234375 481.964844v-482h15v7.632812 29.710938 444.65625zm30-469.09375 30-10v39.1875l-30-10zm182 17.796875-137 13.519531v-43.445312l137 13.519531zm0 0"/></svg>