<?xml version="1.0" encoding="iso-8859-1"?>
<!-- Generator: Adobe Illustrator 19.0.0, SVG Export Plug-In . SVG Version: 6.00 Build 0)  -->
<svg version="1.1" id="Capa_1" xmlns="http://www.w3.org/2000/svg" xmlns:xlink="http://www.w3.org/1999/xlink" x="0px" y="0px"
	 viewBox="0 0 479.999 479.999" style="enable-background:new 0 0 479.999 479.999;" xml:space="preserve">
<g transform="matrix(0.7071 -0.7071 0.7071 0.7071 -15.194 31.698)">
	
		<ellipse transform="matrix(-0.7071 -0.7071 0.7071 -0.7071 -213.7743 566.9373)" style="fill:#FAFDFF;" cx="10.529" cy="327.743" rx="224" ry="224"/>
	
		<ellipse transform="matrix(-0.7071 -0.7071 0.7071 -0.7071 -213.7743 566.9373)" style="fill:#EAF6FD;" cx="10.529" cy="327.743" rx="192" ry="192"/>
	
		<ellipse transform="matrix(-0.7071 -0.7071 0.7071 -0.7071 -213.7743 566.9373)" style="fill:#D9E3D4;" cx="10.529" cy="327.743" rx="160" ry="160"/>
</g>
<path style="fill:#BFC9BE;" d="M182.798,101.528c-14.282,53.36-0.67,112.602,41.201,154.473
	c41.87,41.87,101.112,55.482,154.473,41.201c14.166-53.326,0.487-112.514-41.336-154.338
	C295.312,101.04,236.124,87.361,182.798,101.528z"/>
<g>
	<path style="fill:#FCD95F;" d="M415.999,0.001c0,36.77-27.229,64-64,64c36.771,0,64,27.226,64,64c0-36.774,27.229-64,64-64
		C443.227,64.001,415.999,36.771,415.999,0.001z"/>
	<path style="fill:#FCD95F;" d="M63.999,0.001c0,18.385-13.614,32-32,32c18.386,0,32,13.614,32,32c0-18.386,13.614-32,32-32
		C77.613,32.001,63.999,18.386,63.999,0.001z"/>
</g>
<path style="fill:#EDF1EA;" d="M233.403,406.596c-88.365,0-160-71.632-160-160c0-41.783,16.148-79.707,42.378-108.203
	c-31.759,29.241-51.782,71.035-51.782,117.609c0,88.365,71.634,160,160,160c46.577,0,88.374-20.028,117.613-51.791
	C313.112,390.443,275.192,406.596,233.403,406.596z"/>
<path style="fill:#B3BDB2;" d="M305.351,249.804c7.129-7.129,18.73-7.13,25.859,0c7.13,7.13,7.13,18.73,0.001,25.86
	c-7.132,7.132-18.733,7.132-25.862,0.002C298.219,268.537,298.219,256.936,305.351,249.804 M294.037,238.491
	c-13.374,13.374-13.374,35.118-0.002,48.49c13.372,13.372,35.115,13.372,48.49-0.002c13.371-13.371,13.371-35.115-0.001-48.487
	C329.152,225.119,307.408,225.119,294.037,238.491z"/>
<ellipse style="fill:#BCC5B8;" cx="240.178" cy="340.831" rx="11.432" ry="11.432"/>
<g>
	<ellipse style="fill:#B3BDB2;" cx="159.353" cy="176.772" rx="5.712" ry="5.712"/>
	<ellipse style="fill:#B3BDB2;" cx="230.744" cy="241.196" rx="5.712" ry="5.712"/>
</g>
<ellipse style="fill:#BCC5B8;" cx="172.761" cy="360.334" rx="5.712" ry="5.712"/>
<ellipse style="fill:#B3BDB2;" cx="304.934" cy="186.071" rx="5.712" ry="5.712"/>
<ellipse style="fill:#BCC5B8;" cx="296.508" cy="354.771" rx="5.712" ry="5.712"/>
<ellipse style="fill:#B3BDB2;" cx="224.005" cy="159.055" rx="20" ry="20"/>
<path style="fill:#BCC5B8;" d="M128.068,251.32c11.587-11.587,30.437-11.586,42.022,0c11.586,11.586,11.586,30.435-0.001,42.022
	c-11.587,11.587-30.437,11.586-42.022,0.001S116.481,262.908,128.068,251.32 M116.755,240.007c-17.83,17.83-17.83,46.821,0,64.65
	c17.829,17.829,46.821,17.829,64.65-0.001s17.83-46.821,0.001-64.65C163.576,222.177,134.584,222.177,116.755,240.007z"/>
<g>
</g>
<g>
</g>
<g>
</g>
<g>
</g>
<g>
</g>
<g>
</g>
<g>
</g>
<g>
</g>
<g>
</g>
<g>
</g>
<g>
</g>
<g>
</g>
<g>
</g>
<g>
</g>
<g>
</g>
</svg>
