<?xml version="1.0" encoding="iso-8859-1"?>
<!-- Generator: Adobe Illustrator 19.0.0, SVG Export Plug-In . SVG Version: 6.00 Build 0)  -->
<svg version="1.1" id="Capa_1" xmlns="http://www.w3.org/2000/svg" xmlns:xlink="http://www.w3.org/1999/xlink" x="0px" y="0px"
	 viewBox="0 0 448 448" style="enable-background:new 0 0 448 448;" xml:space="preserve">
<g>
	<path style="fill:#FCD95F;" d="M144,16c0,36.77-27.229,64-64,64c36.771,0,64,27.226,64,64c0-36.774,27.229-64,64-64
		C171.229,80,144,52.769,144,16z"/>
	<path style="fill:#FCD95F;" d="M32,136.752c0,18.385-13.614,32-32,32c18.386,0,32,13.614,32,32c0-18.386,13.614-32,32-32
		C45.614,168.752,32,155.137,32,136.752z"/>
</g>
<path style="fill:#F3F3F3;" d="M352,240c-5.588,0-11.031,0.578-16.355,1.494C313.727,202.435,271.977,176,224,176
	s-89.726,26.434-111.645,65.494C107.031,240.578,101.588,240,96,240c-53.019,0-96,42.981-96,96s42.981,96,96,96h256
	c53.019,0,96-42.981,96-96S405.019,240,352,240z"/>
<path style="fill:#E1E1E1;" d="M352,240c-5.586,0-11.031,0.578-16.355,1.494c-0.098-0.177-0.23-0.332-0.332-0.509
	c10.57,18.62,16.687,40.1,16.687,63.041C352,374.704,294.703,432,224.027,432H352c53.019,0,96-42.981,96-96S405.019,240,352,240z"/>
<g>
</g>
<g>
</g>
<g>
</g>
<g>
</g>
<g>
</g>
<g>
</g>
<g>
</g>
<g>
</g>
<g>
</g>
<g>
</g>
<g>
</g>
<g>
</g>
<g>
</g>
<g>
</g>
<g>
</g>
</svg>
