<?xml version="1.0" encoding="iso-8859-1"?>
<!-- Generator: Adobe Illustrator 19.0.0, SVG Export Plug-In . SVG Version: 6.00 Build 0)  -->
<svg version="1.1" id="Capa_1" xmlns="http://www.w3.org/2000/svg" xmlns:xlink="http://www.w3.org/1999/xlink" x="0px" y="0px"
	 viewBox="0 0 464 464" style="enable-background:new 0 0 464 464;" xml:space="preserve">
<path style="fill:#727272;" d="M279.999,215.998c-6.715,0-13.086,1.215-19.25,2.934c-16.145-30.295-48.023-50.934-84.75-50.934
	s-68.606,20.638-84.75,50.934c-6.164-1.718-12.535-2.934-19.25-2.934c-39.766,0-72,32.234-72,72s32.234,72,72,72h208
	c39.766,0,72-32.234,72-72S319.765,215.998,279.999,215.998z"/>
<path style="fill:#676868;" d="M351.999,287.998c0-39.766-32.234-72-72-72c-6.715,0-13.086,1.215-19.25,2.934
	c-16.145-30.295-48.023-50.934-84.75-50.934s-68.606,20.638-84.75,50.934c-2.156-0.602-4.371-1.027-6.582-1.477
	c2.957,5.187,7.203,9.641,12.45,12.791l9.664,5.799l-6.703,9.045c-7.336,9.906-8.961,23.127-4.246,34.508
	c4.715,11.383,15.215,19.58,27.402,21.393l11.141,1.658l-2.73,10.926c-2.656,10.602-0.32,21.634,6.406,30.256
	c6.738,8.633,16.871,13.584,27.805,13.584c2.875,0,5.754-0.355,8.55-1.053l10.942-2.736l0.95,6.373H280
	C319.765,359.998,351.999,327.764,351.999,287.998z"/>
<path style="fill:#575757;" d="M351.999,287.998c0-39.766-32.234-72-72-72c-6.715,0-13.086,1.215-19.25,2.934
	c-16.145-30.295-48.023-50.934-84.75-50.934c-32.191,0-60.649,15.862-78.062,40.176c1.594,3.39,4.058,6.338,7.418,8.354
	l20.754,12.453c1.336,0.802,1.82,1.978,1.988,2.822c0.168,0.846,0.172,2.119-0.758,3.377l-14.406,19.435
	c-4.07,5.496-4.938,12.545-2.32,18.859s8.215,10.683,14.977,11.691l23.93,3.561c1.547,0.23,2.442,1.133,2.922,1.85
	c0.477,0.717,0.969,1.89,0.59,3.406l-5.867,23.47c-1.45,5.795-0.176,11.824,3.5,16.534c3.683,4.721,9.222,7.428,15.191,7.428
	c1.574,0,3.149-0.195,4.68-0.576l23.484-5.873c0.355-0.088,0.711-0.133,1.058-0.133c1.77,0,3.84,1.278,4.195,3.645l3.199,21.522
	h52.32c0.191-0.027,0.348-0.182,0.543-0.182c0.164,0,0.594,0.117,0.938,0.182h23.726
	C319.765,359.998,351.999,327.764,351.999,287.998z"/>
<path style="fill:#FCF1CE;" d="M441.659,215.26l20.748-12.449c2.123-1.274,2.123-4.351,0-5.626l-20.746-12.449
	c-10.265-6.159-12.983-19.826-5.856-29.445l14.403-19.438c1.474-1.99,0.297-4.833-2.153-5.198l-23.931-3.561
	c-11.841-1.762-19.582-13.349-16.679-24.962l5.868-23.47c0.601-2.402-1.575-4.578-3.978-3.978l-23.474,5.868
	c-11.613,2.903-23.198-4.838-24.96-16.678l-3.561-23.931c-0.365-2.45-3.208-3.627-5.198-2.153l-19.441,14.404
	c-9.618,7.126-23.285,4.408-29.443-5.857l-12.447-20.746c-1.274-2.123-4.352-2.123-5.626,0l-12.448,20.744
	c-6.158,10.265-19.825,12.983-29.443,5.857l-19.441-14.404c-1.99-1.474-4.833-0.297-5.198,2.153l-3.561,23.931
	c-1.762,11.84-13.347,19.581-24.96,16.678l-23.474-5.868c-2.402-0.601-4.578,1.575-3.978,3.978l5.868,23.472
	c2.903,11.613-4.838,23.198-16.678,24.961l-23.933,3.562c-2.45,0.365-3.627,3.208-2.153,5.198l14.403,19.438
	c7.127,9.618,4.409,23.286-5.856,29.445l-20.746,12.449c-2.123,1.274-2.123,4.351,0,5.626l20.748,12.449
	c10.264,6.158,12.982,19.825,5.856,29.442l-14.405,19.439c-1.474,1.99-0.297,4.833,2.153,5.198l23.933,3.561
	c11.84,1.762,19.582,13.348,16.678,24.961l-5.868,23.473c-0.601,2.402,1.575,4.578,3.978,3.978l23.472-5.868
	c11.614-2.903,23.2,4.838,24.962,16.678l3.561,23.931c0.365,2.45,3.208,3.627,5.198,2.153l19.439-14.404
	c9.618-7.126,23.284-4.408,29.443,5.856l12.449,20.748c1.274,2.123,4.351,2.123,5.626,0l12.448-20.747
	c6.159-10.265,19.826-12.983,29.444-5.856l19.438,14.404c1.99,1.474,4.833,0.297,5.198-2.153l3.561-23.931
	c1.762-11.841,13.348-19.582,24.962-16.678l23.472,5.868c2.402,0.601,4.578-1.575,3.978-3.978l-5.868-23.473
	c-2.903-11.613,4.838-23.198,16.678-24.961l23.933-3.561c2.45-0.365,3.627-3.208,2.153-5.198l-14.405-19.439
	C428.676,235.085,431.394,221.419,441.659,215.26z"/>
<circle style="fill:#F9DB7B;" cx="288.002" cy="199.994" r="112"/>
<path style="fill:#F3F3F3;" d="M375.999,295.998c-6.715,0-13.086,1.215-19.25,2.934c-16.145-30.295-48.023-50.934-84.75-50.934
	s-68.606,20.638-84.75,50.934c-6.164-1.718-12.535-2.934-19.25-2.934c-39.766,0-72,32.234-72,72s32.234,72,72,72h208
	c39.766,0,72-32.234,72-72S415.765,295.998,375.999,295.998z"/>
<g>
	<path style="fill:#E1E1E1;" d="M372.571,295.998c-4.389,0-8.667,0.434-12.85,1.121c-0.077-0.133-0.181-0.249-0.261-0.382
		c8.306,13.965,13.112,30.074,13.112,47.281c0,53.008-45.019,95.98-100.55,95.98h100.55c41.658,0,75.429-32.235,75.429-72
		S414.229,295.998,372.571,295.998z"/>
	<path style="fill:#E1E1E1;" d="M375.999,295.998c-6.722,0-13.098,1.207-19.25,2.937c7.16,13.442,11.25,28.77,11.25,45.063
		c0,53.019-42.981,96-96,96h104c39.766,0,72-32.235,72-72S415.765,295.998,375.999,295.998z"/>
</g>
<g>
</g>
<g>
</g>
<g>
</g>
<g>
</g>
<g>
</g>
<g>
</g>
<g>
</g>
<g>
</g>
<g>
</g>
<g>
</g>
<g>
</g>
<g>
</g>
<g>
</g>
<g>
</g>
<g>
</g>
</svg>
