<?xml version="1.0" encoding="iso-8859-1"?>
<!-- Generator: Adobe Illustrator 19.0.0, SVG Export Plug-In . SVG Version: 6.00 Build 0)  -->
<svg version="1.1" id="Capa_1" xmlns="http://www.w3.org/2000/svg" xmlns:xlink="http://www.w3.org/1999/xlink" x="0px" y="0px"
	 viewBox="0 0 448.002 448.002" style="enable-background:new 0 0 448.002 448.002;" xml:space="preserve">
<circle style="fill:#D9E3D4;" cx="287.872" cy="224.002" r="160"/>
<path style="fill:#BFC9BE;" d="M127.91,224c0,88.365,71.635,160,160,160V64C199.546,64.001,127.91,135.634,127.91,224z"/>
<path style="fill:#BCC5B8;" d="M349.817,284.001c6.301,0,11.43,5.127,11.43,11.429s-5.129,11.429-11.43,11.429
	c-6.305,0-11.434-5.127-11.434-11.429C338.383,289.127,343.512,284.001,349.817,284.001 M349.817,261.143
	c-18.914,0-34.289,15.375-34.289,34.286s15.375,34.286,34.289,34.286c18.91,0,34.285-15.375,34.285-34.286
	S368.727,261.143,349.817,261.143z"/>
<circle style="fill:#A7B0A6;" cx="239.312" cy="287.09" r="11.432"/>
<g>
	<circle style="fill:#BCC5B8;" cx="311.472" cy="112.674" r="5.712"/>
	<circle style="fill:#BCC5B8;" cx="321.232" cy="206.858" r="5.712"/>
</g>
<g>
	<circle style="fill:#A7B0A6;" cx="246.512" cy="106.93" r="5.712"/>
	<circle style="fill:#A7B0A6;" cx="186.272" cy="269.946" r="5.712"/>
</g>
<circle style="fill:#BCC5B8;" cx="394.576" cy="231.786" r="5.712"/>
<circle style="fill:#A7B0A6;" cx="216.376" cy="336.002" r="5.712"/>
<circle style="fill:#BCC5B8;" cx="356.48" cy="155.41" r="20"/>
<path style="fill:#A7B0A6;" d="M223.626,159.714c12.606,0,22.859,10.254,22.859,22.858s-10.254,22.857-22.859,22.857
	c-12.606,0-22.859-10.254-22.859-22.857S211.02,159.714,223.626,159.714 M223.626,136.858c-25.215,0-45.715,20.5-45.715,45.714
	s20.5,45.714,45.715,45.714s45.715-20.5,45.715-45.714C269.34,157.358,248.84,136.858,223.626,136.858z"/>
<g>
	<circle style="fill:#555655;" cx="47.912" cy="240.002" r="16"/>
	<circle style="fill:#555655;" cx="415.872" cy="432.002" r="16"/>
	<path style="fill:#555655;" d="M288.001,255.918h-192c-8.837,0-16-7.163-16-16s7.163-16,16-16h192c8.837,0,16,7.163,16,16
		S296.838,255.918,288.001,255.918z"/>
	<path style="fill:#555655;" d="M368.001,447.918h-256c-8.837,0-16-7.163-16-16s7.163-16,16-16h256c8.837,0,16,7.163,16,16
		S376.838,447.918,368.001,447.918z"/>
	<path style="fill:#555655;" d="M432.001,383.918h-416c-8.837,0-16-7.163-16-16s7.163-16,16-16h416c8.837,0,16,7.163,16,16
		S440.838,383.918,432.001,383.918z"/>
	<path style="fill:#555655;" d="M368.001,319.918h-320c-8.837,0-16-7.163-16-16s7.163-16,16-16h320c8.837,0,16,7.163,16,16
		S376.838,319.918,368.001,319.918z"/>
</g>
<g>
	<path style="fill:#FCD95F;" d="M64.001,32.001c0,36.77-27.229,64-64,64c36.771,0,64,27.226,64,64c0-36.774,27.229-64,64-64
		C91.23,96,64.001,68.77,64.001,32.001z"/>
	<path style="fill:#FCD95F;" d="M416.001,0c0,18.385-13.614,32-32,32c18.386,0,32,13.614,32,32c0-18.386,13.614-32,32-32
		C429.615,32.001,416.001,18.385,416.001,0z"/>
</g>
<g>
</g>
<g>
</g>
<g>
</g>
<g>
</g>
<g>
</g>
<g>
</g>
<g>
</g>
<g>
</g>
<g>
</g>
<g>
</g>
<g>
</g>
<g>
</g>
<g>
</g>
<g>
</g>
<g>
</g>
</svg>
