<?xml version="1.0" encoding="iso-8859-1"?>
<!-- Generator: Adobe Illustrator 19.0.0, SVG Export Plug-In . SVG Version: 6.00 Build 0)  -->
<svg version="1.1" id="Capa_1" xmlns="http://www.w3.org/2000/svg" xmlns:xlink="http://www.w3.org/1999/xlink" x="0px" y="0px"
	 viewBox="0 0 448 448" style="enable-background:new 0 0 448 448;" xml:space="preserve">
<path style="fill:#F3F3F3;" d="M352,64c-5.588,0-11.031,0.578-16.355,1.494C313.727,26.435,271.977,0,224,0
	s-89.726,26.434-111.645,65.494C107.031,64.578,101.588,64,96,64c-53.019,0-96,42.981-96,96s42.981,96,96,96h256
	c53.019,0,96-42.981,96-96S405.019,64,352,64z"/>
<path style="fill:#E1E1E1;" d="M352,64c-5.586,0-11.031,0.578-16.355,1.494c-0.098-0.177-0.23-0.332-0.332-0.509
	c10.57,18.62,16.687,40.1,16.687,63.041C352,198.704,294.703,256,224.027,256H352c53.019,0,96-42.981,96-96S405.019,64,352,64z"/>
<g>
	<path style="fill:#A4C4E7;" d="M304,291.018c-13.808,13.808-32,26.832-32,45.248c0,42.288,64,42.336,64,0
		C336,317.834,317.808,304.826,304,291.018z"/>
	<path style="fill:#A4C4E7;" d="M240,371.018c-13.808,13.808-32,26.832-32,45.248c0,42.288,64,42.336,64,0
		C272,397.834,253.808,384.826,240,371.018z"/>
	<path style="fill:#A4C4E7;" d="M160,197.754c-45.472,45.472-64,57.2-64,90.512c0,35.344,28.656,64,64,64s64-28.656,64-64
		C224,254.986,205.568,243.322,160,197.754z"/>
</g>
<g>
</g>
<g>
</g>
<g>
</g>
<g>
</g>
<g>
</g>
<g>
</g>
<g>
</g>
<g>
</g>
<g>
</g>
<g>
</g>
<g>
</g>
<g>
</g>
<g>
</g>
<g>
</g>
<g>
</g>
</svg>
