<?xml version="1.0" encoding="iso-8859-1"?>
<!-- Generator: Adobe Illustrator 19.0.0, SVG Export Plug-In . SVG Version: 6.00 Build 0)  -->
<svg version="1.1" id="Capa_1" xmlns="http://www.w3.org/2000/svg" xmlns:xlink="http://www.w3.org/1999/xlink" x="0px" y="0px"
	 viewBox="0 0 464.144 464.144" style="enable-background:new 0 0 464.144 464.144;" xml:space="preserve">
<circle style="fill:#FAFDFF;" cx="288.144" cy="224.075" r="176"/>
<circle style="fill:#E6F2FB;" cx="288.144" cy="224.075" r="156.448"/>
<path style="fill:#ABABAB;" d="M279.999,232.072c-6.715,0-13.086,1.215-19.25,2.934c-16.145-30.295-48.023-50.934-84.75-50.934
	s-68.606,20.638-84.75,50.934c-6.164-1.718-12.535-2.934-19.25-2.934c-39.766,0-72,32.234-72,72c0,39.766,32.234,72,72,72h208
	c39.766,0,72-32.234,72-72C352,264.306,319.765,232.072,279.999,232.072z"/>
<path style="fill:#999A9B;" d="M279.998,232.072c-6.715,0-13.086,1.215-19.25,2.934c-16.145-30.295-48.023-50.934-84.75-50.934
	c-24.191,0-46.168,9.078-63.039,23.848c-0.488,5.326-0.817,10.699-0.817,16.152c0,64.926,35.254,121.494,87.57,152h80.285
	c39.766,0,72-32.234,72-72C351.997,264.306,319.763,232.072,279.998,232.072z"/>
<path style="fill:#757B7F;" d="M279.998,232.072c-6.715,0-13.086,1.215-19.25,2.934c-16.145-30.295-48.023-50.934-84.75-50.934
	c-14.809,0-28.754,3.488-41.278,9.481c-1.953,9.875-3.023,20.07-3.023,30.519c0,73.828,51.203,135.553,119.992,152h28.309
	c39.766,0,72-32.234,72-72C351.998,264.306,319.763,232.072,279.998,232.072z"/>
<g>
	<path style="fill:#FCD95F;" d="M416.142,8.072c0,27.577-20.422,48-48,48c27.578,0,48,20.42,48,48c0-27.58,20.422-48,48-48
		C436.563,56.072,416.142,35.649,416.142,8.072z"/>
	<path style="fill:#FCD95F;" d="M160.142,8.072c0,18.385-13.614,32-32,32c18.386,0,32,13.614,32,32c0-18.386,13.614-32,32-32
		C173.756,40.072,160.142,26.457,160.142,8.072z"/>
</g>
<circle style="fill:#D9E3D4;" cx="288.144" cy="224.075" r="136.88"/>
<g>
	<path style="fill:#BCC5B8;" d="M233.13,165.777c12.668,0,22.977,10.306,22.977,22.974s-10.309,22.974-22.977,22.974
		s-22.973-10.306-22.973-22.974S220.462,165.777,233.13,165.777 M233.13,149.777c-21.496,0-38.973,17.478-38.973,38.974
		s17.477,38.974,38.973,38.974s38.977-17.478,38.977-38.974S254.626,149.777,233.13,149.777z"/>
	<path style="fill:#BCC5B8;" d="M340.919,271.738c7.297,0,13.23,5.935,13.23,13.23c0,7.297-5.934,13.233-13.23,13.233
		s-13.23-5.935-13.23-13.233C327.689,277.674,333.622,271.738,340.919,271.738 M340.919,255.738c-16.125,0-29.23,13.11-29.23,29.23
		c0,16.123,13.106,29.233,29.23,29.233s29.23-13.11,29.23-29.233C370.15,268.847,357.044,255.738,340.919,255.738z"/>
	<circle style="fill:#BCC5B8;" cx="246.736" cy="284.955" r="9.744"/>
	<circle style="fill:#BCC5B8;" cx="291.368" cy="132.715" r="4.872"/>
	<circle style="fill:#BCC5B8;" cx="301.136" cy="219.195" r="4.872"/>
	<circle style="fill:#BCC5B8;" cx="194.328" cy="256.115" r="4.872"/>
	<circle style="fill:#BCC5B8;" cx="379.048" cy="230.707" r="4.872"/>
	<circle style="fill:#BCC5B8;" cx="272.312" cy="327.331" r="4.872"/>
	<circle style="fill:#BCC5B8;" cx="346.568" cy="165.611" r="17.048"/>
</g>
<path style="fill:#F3F3F3;" d="M375.999,312.072c-6.715,0-13.086,1.215-19.25,2.934c-16.145-30.295-48.023-50.934-84.75-50.934
	s-68.606,20.638-84.75,50.934c-6.164-1.718-12.535-2.934-19.25-2.934c-39.766,0-72,32.234-72,72c0,39.766,32.234,72,72,72h208
	c39.766,0,72-32.234,72-72C447.999,344.306,415.765,312.072,375.999,312.072z"/>
<path style="fill:#E1E1E1;" d="M375.999,312.072c-6.722,0-13.098,1.207-19.25,2.937c7.16,13.442,11.25,28.77,11.25,45.063
	c0,53.019-42.981,96-96,96h104c39.766,0,72-32.235,72-72C447.999,344.307,415.765,312.072,375.999,312.072z"/>
<g>
</g>
<g>
</g>
<g>
</g>
<g>
</g>
<g>
</g>
<g>
</g>
<g>
</g>
<g>
</g>
<g>
</g>
<g>
</g>
<g>
</g>
<g>
</g>
<g>
</g>
<g>
</g>
<g>
</g>
</svg>
