<?xml version="1.0" encoding="iso-8859-1"?>
<!-- Generator: Adobe Illustrator 19.0.0, SVG Export Plug-In . SVG Version: 6.00 Build 0)  -->
<svg version="1.1" id="Capa_1" xmlns="http://www.w3.org/2000/svg" xmlns:xlink="http://www.w3.org/1999/xlink" x="0px" y="0px"
	 viewBox="0 0 480 480" style="enable-background:new 0 0 480 480;" xml:space="preserve">
<path style="fill:#295185;" d="M0,48v64c114.691,0,208,93.309,208,208h64C272,169.778,150.221,48,0,48z"/>
<path style="fill:#FCD95F;" d="M0,112v64c79.402,0,144,64.598,144,144h64C208,205.125,114.874,112,0,112z"/>
<path style="fill:#D64231;" d="M0,176v64c44.111,0,80,35.888,80,80h64C144,240.47,79.529,176,0,176z"/>
<path style="fill:#A43326;" d="M95.426,212.362c-23.481,6.194-44.305,18.848-60.482,36.019C61.508,261.406,80,288.472,80,320h64
	C144,277.125,125.158,238.742,95.426,212.362z"/>
<path style="fill:#C2A847;" d="M208,320c0-53.642-20.481-102.378-53.824-139.267c-9.66,7.979-18.453,17.093-26.098,27.267
	c-0.027,0-0.053,0-0.078,0c-11.301,0-22.207,1.618-32.652,4.381C125.11,238.781,144,277.182,144,320H208z"/>
<path style="fill:#203E66;" d="M212.398,150.342c-21.344,6.086-41.246,16.346-58.299,30.447c33.377,36.909,53.9,85.649,53.9,139.211
	h64C272,255.784,249.615,196.871,212.398,150.342z"/>
<path style="fill:#F3F3F3;" d="M384,240c-5.588,0-11.031,0.578-16.355,1.494C345.727,202.435,303.977,176,256,176
	s-89.726,26.434-111.645,65.494C139.031,240.578,133.588,240,128,240c-53.019,0-96,42.981-96,96s42.981,96,96,96h256
	c53.019,0,96-42.981,96-96S437.019,240,384,240z"/>
<path style="fill:#E1E1E1;" d="M384,240c-5.586,0-11.031,0.578-16.355,1.494c-0.098-0.177-0.23-0.332-0.332-0.509
	c10.57,18.62,16.687,40.1,16.687,63.041C384,374.704,326.703,432,256.027,432H384c53.019,0,96-42.981,96-96S437.019,240,384,240z"/>
<g>
</g>
<g>
</g>
<g>
</g>
<g>
</g>
<g>
</g>
<g>
</g>
<g>
</g>
<g>
</g>
<g>
</g>
<g>
</g>
<g>
</g>
<g>
</g>
<g>
</g>
<g>
</g>
<g>
</g>
</svg>
