<?xml version="1.0" encoding="iso-8859-1"?>
<!-- Generator: Adobe Illustrator 19.0.0, SVG Export Plug-In . SVG Version: 6.00 Build 0)  -->
<svg version="1.1" id="Capa_1" xmlns="http://www.w3.org/2000/svg" xmlns:xlink="http://www.w3.org/1999/xlink" x="0px" y="0px"
	 viewBox="0 0 512 512" style="enable-background:new 0 0 512 512;" xml:space="preserve">
<path style="fill:#FCF1CE;" d="M434.46,253.723L464,236l-29.541-17.724c-11.922-7.153-15.078-23.026-6.802-34.196l20.51-27.678
	l-34.075-5.07c-13.751-2.046-22.742-15.502-19.37-28.99l8.355-33.42l-33.42,8.355c-13.487,3.372-26.942-5.618-28.989-19.37
	l-5.071-34.074l-27.681,20.509c-11.17,8.276-27.042,5.118-34.195-6.802L256,28l-17.722,29.539
	c-7.152,11.922-23.024,15.079-34.195,6.802l-27.681-20.509l-5.071,34.074c-2.046,13.75-15.502,22.741-28.989,19.37l-33.42-8.355
	l8.355,33.42c3.372,13.487-5.619,26.943-19.37,28.99l-34.074,5.07l20.51,27.678c8.277,11.17,5.12,27.043-6.802,34.196L48,236
	l29.54,17.723c11.922,7.153,15.079,23.026,6.802,34.196l-20.51,27.678l34.075,5.07c13.751,2.046,22.742,15.502,19.37,28.99
	l-8.355,33.421l33.42-8.355c13.487-3.372,26.942,5.618,28.989,19.37l5.071,34.074l27.678-20.509
	c11.17-8.277,27.042-5.12,34.195,6.801L256,444l17.725-29.541c7.153-11.921,23.026-15.078,34.195-6.801l27.678,20.509l5.071-34.074
	c2.046-13.75,15.502-22.741,28.989-19.37l33.42,8.355l-8.355-33.421c-3.372-13.487,5.619-26.943,19.37-28.99l34.075-5.07
	l-20.51-27.678C419.381,276.749,422.538,260.876,434.46,253.723z"/>
<circle style="fill:#F9DB7B;" cx="256" cy="236" r="128"/>
<rect y="268" style="fill:#70A9DC;" width="512" height="32"/>
<path style="fill:#6DC282;" d="M88.112,268c1.722,6.621,0.665,13.934-3.77,19.918L75.39,300H436.61l-8.952-12.082
	c-4.435-5.984-5.492-13.297-3.77-19.918H88.112z"/>
<path style="fill:#459C60;" d="M145.264,300h221.472c5.738-9.906,10.14-20.645,13.068-32H132.195
	C135.124,279.355,139.526,290.094,145.264,300z"/>
<polygon style="fill:#555655;" points="335.187,411.195 256,332 176.813,411.195 199.438,433.82 240,393.252 240,484 272,484 
	272,393.252 312.562,433.82 "/>
<g>
</g>
<g>
</g>
<g>
</g>
<g>
</g>
<g>
</g>
<g>
</g>
<g>
</g>
<g>
</g>
<g>
</g>
<g>
</g>
<g>
</g>
<g>
</g>
<g>
</g>
<g>
</g>
<g>
</g>
</svg>
